# xmcd
#
# Track frame offsets: 
#        150
#        25656
#        41464
#        58956
#        76097
#        97314
#        115302
#        132901
#        160359
#        175536
#        203049
#        231195
#        259655
#        274423
#        300614
#        311887
#        334160
#
# Disc length: 4768 seconds
#
# Revision: 2
# Processed by: cddbd v1.5.2PL0 Copyright (c) Steve Scherf et al.
# Submitted via: ExactAudioCopy v1.0b1
#
DISCID=ef129e11
DTITLE=Various Artist - Armada Lounge Volume 4
DYEAR=2011
DGENRE=Chillout, Downtempo
TTITLE0=Mike Foyle vs. Signalrunners - Love Theme Dusk (Avenger Morpho
TTITLE0=sis Chill Out Remix)
TTITLE1=Brian - Drowning (Acoustic Version)
TTITLE2=Chris Reece - The Divine Circle (Piano Reprise)
TTITLE3=Max Graham feat. Jessica Riddle - Why This Is Goodbye
TTITLE4=Glenn Morrison - I See You In Me
TTITLE5=Dark Matters feat. Ana Criado - The Quest Of A Dream
TTITLE6=Robert Nickson and Ruben de Ronde - Superlative (Robert Nickson 
TTITLE6=Chill Out Mix)
TTITLE7=Cerf, Mitiska and Jaren - Beggin' You (Aeron Aether and Gorm Soren
TTITLE7=sen Remix)
TTITLE8=Lowland - Flaming June
TTITLE9=Josh Gabriel pres. Winter Kills - Ichabod
TTITLE10=Roger Shah pres. Sunlounger feat. Zara Taylor - Found (Downte
TTITLE10=mpo Version)
TTITLE11=Lemon and Einar K - Tenacity (Lemon and Einar K's Chill Out-Score
TTITLE11=)
TTITLE12=Activa feat. Julie Harrington - You Are Here (Ambient Mix)
TTITLE13=Ben Gold feat. Senadee - Today (Chilled Datt Remix)
TTITLE14=John O'Callaghan vs. Neptune Project - Rhea (Chill Out Mix)
TTITLE15=Roger Shah pres. Sunlounger - Trademark White (Omega 3 Bossac
TTITLE15=hill Remix)
TTITLE16=Tenishia with Kirsty Hawkshaw - Falling
EXTD=
EXTT0=
EXTT1=
EXTT2=
EXTT3=
EXTT4=
EXTT5=
EXTT6=
EXTT7=
EXTT8=
EXTT9=
EXTT10=
EXTT11=
EXTT12=
EXTT13=
EXTT14=
EXTT15=
EXTT16=
PLAYORDER=
